<mxfile host="app.diagrams.net" modified="2021-06-20T20:17:41.139Z" agent="5.0 (Windows NT 10.0; Win64; x64) AppleWebKit/537.36 (KHTML, like Gecko) Chrome/91.0.4472.106 Safari/537.36" etag="PjvD15HsYw11AHkAu236" version="14.8.0" type="github">
  <diagram id="wFE0QG_FPsp0jaGvCLVb" name="Page-1">
    <mxGraphModel dx="782" dy="379" grid="1" gridSize="10" guides="1" tooltips="1" connect="1" arrows="1" fold="1" page="1" pageScale="1" pageWidth="850" pageHeight="1100" math="0" shadow="0">
      <root>
        <mxCell id="0" />
        <mxCell id="1" parent="0" />
        <mxCell id="Bo3psH5uF7-XkX_DlGIA-1" value="کاربر" style="shape=umlLifeline;participant=umlActor;perimeter=lifelinePerimeter;whiteSpace=wrap;html=1;container=1;collapsible=0;recursiveResize=0;verticalAlign=top;spacingTop=36;labelBackgroundColor=#ffffff;outlineConnect=0;size=40;fontFamily=B Zar;fontSize=13;fontStyle=1" parent="1" vertex="1">
          <mxGeometry x="20" y="20" width="20" height="360" as="geometry" />
        </mxCell>
        <mxCell id="Bo3psH5uF7-XkX_DlGIA-5" value="&lt;font style=&quot;font-size: 13px;&quot;&gt;&lt;br style=&quot;font-size: 13px;&quot;&gt;صفحه نمایش&lt;br style=&quot;font-size: 13px;&quot;&gt;&lt;/font&gt;&lt;br style=&quot;font-size: 13px;&quot;&gt;" style="shape=umlLifeline;perimeter=lifelinePerimeter;whiteSpace=wrap;html=1;container=1;collapsible=0;recursiveResize=0;outlineConnect=0;fontStyle=1;fontFamily=B Zar;fontSize=13;fillColor=#BFBFBF;" parent="1" vertex="1">
          <mxGeometry x="280" y="20" width="100" height="360" as="geometry" />
        </mxCell>
        <mxCell id="Bo3psH5uF7-XkX_DlGIA-6" value="" style="html=1;points=[];perimeter=orthogonalPerimeter;fillColor=#5EBEA0;" parent="Bo3psH5uF7-XkX_DlGIA-5" vertex="1">
          <mxGeometry x="45" y="80" width="10" height="80" as="geometry" />
        </mxCell>
        <mxCell id="Bo3psH5uF7-XkX_DlGIA-7" value="" style="html=1;points=[];perimeter=orthogonalPerimeter;fillColor=#28408E;" parent="Bo3psH5uF7-XkX_DlGIA-5" vertex="1">
          <mxGeometry x="48" y="140" width="10" height="10" as="geometry" />
        </mxCell>
        <mxCell id="Bo3psH5uF7-XkX_DlGIA-8" value="" style="html=1;points=[];perimeter=orthogonalPerimeter;fillColor=#5EBEA0;" parent="Bo3psH5uF7-XkX_DlGIA-5" vertex="1">
          <mxGeometry x="45" y="210" width="10" height="90" as="geometry" />
        </mxCell>
        <mxCell id="Bo3psH5uF7-XkX_DlGIA-11" value="کاربر" style="shape=umlLifeline;perimeter=lifelinePerimeter;whiteSpace=wrap;html=1;container=1;collapsible=0;recursiveResize=0;outlineConnect=0;fontSize=13;fontFamily=B Zar;fontStyle=1;fillColor=#BFBFBF;" parent="1" vertex="1">
          <mxGeometry x="560" y="20" width="100" height="360" as="geometry" />
        </mxCell>
        <mxCell id="Bo3psH5uF7-XkX_DlGIA-12" value="" style="html=1;points=[];perimeter=orthogonalPerimeter;fillColor=#5EBEA0;" parent="Bo3psH5uF7-XkX_DlGIA-11" vertex="1">
          <mxGeometry x="45" y="250" width="10" height="40" as="geometry" />
        </mxCell>
        <mxCell id="Bo3psH5uF7-XkX_DlGIA-13" value="&lt;font style=&quot;font-size: 13px&quot;&gt;درخواست تکمیل حساب کاربری&lt;/font&gt;" style="html=1;verticalAlign=bottom;startArrow=oval;endArrow=block;startSize=8;exitX=1.3;exitY=0.089;exitDx=0;exitDy=0;exitPerimeter=0;fontFamily=B Zar;fontSize=13;strokeColor=#28408E;" parent="1" source="Bo3psH5uF7-XkX_DlGIA-4" target="Bo3psH5uF7-XkX_DlGIA-6" edge="1">
          <mxGeometry relative="1" as="geometry">
            <mxPoint x="50" y="113" as="sourcePoint" />
          </mxGeometry>
        </mxCell>
        <mxCell id="Bo3psH5uF7-XkX_DlGIA-14" value="&lt;font style=&quot;font-size: 13px;&quot;&gt;صفحه ی مورد نظر باز می شود&lt;/font&gt;" style="edgeStyle=orthogonalEdgeStyle;html=1;align=left;spacingLeft=2;endArrow=block;rounded=0;entryX=1;entryY=0;fontFamily=B Zar;fontSize=13;strokeColor=#28408E;" parent="1" target="Bo3psH5uF7-XkX_DlGIA-7" edge="1">
          <mxGeometry relative="1" as="geometry">
            <mxPoint x="332.5" y="120" as="sourcePoint" />
            <Array as="points">
              <mxPoint x="357.5" y="120" />
            </Array>
          </mxGeometry>
        </mxCell>
        <mxCell id="Bo3psH5uF7-XkX_DlGIA-15" value="&lt;font style=&quot;font-size: 13px;&quot;&gt;وارد کردن اطلاعات&lt;/font&gt;" style="html=1;verticalAlign=bottom;startArrow=oval;startFill=1;endArrow=block;startSize=8;exitX=1.1;exitY=0.33;exitDx=0;exitDy=0;exitPerimeter=0;strokeColor=#28408E;fontFamily=B Zar;fontSize=13;" parent="1" source="Bo3psH5uF7-XkX_DlGIA-4" target="Bo3psH5uF7-XkX_DlGIA-6" edge="1">
          <mxGeometry width="60" relative="1" as="geometry">
            <mxPoint x="130" y="170" as="sourcePoint" />
            <mxPoint x="200" y="170.5" as="targetPoint" />
          </mxGeometry>
        </mxCell>
        <mxCell id="Bo3psH5uF7-XkX_DlGIA-16" value="&lt;div style=&quot;text-align: left; font-size: 13px;&quot;&gt;&lt;font style=&quot;font-size: 13px;&quot;&gt;&amp;nbsp;کلیک کردن دکمه تایید&amp;nbsp;&lt;/font&gt;&lt;/div&gt;" style="html=1;verticalAlign=bottom;startArrow=oval;endArrow=block;startSize=8;strokeColor=#28408E;fontFamily=B Zar;fontSize=13;" parent="1" target="Bo3psH5uF7-XkX_DlGIA-8" edge="1">
          <mxGeometry relative="1" as="geometry">
            <mxPoint x="41" y="233" as="sourcePoint" />
          </mxGeometry>
        </mxCell>
        <mxCell id="Bo3psH5uF7-XkX_DlGIA-17" value="&lt;font style=&quot;font-size: 13px;&quot;&gt;ثبت در پایگاه داده&lt;/font&gt;" style="html=1;verticalAlign=bottom;endArrow=block;entryX=0;entryY=0;fontFamily=B Zar;fontSize=13;strokeColor=#28408E;" parent="1" source="Bo3psH5uF7-XkX_DlGIA-8" target="Bo3psH5uF7-XkX_DlGIA-12" edge="1">
          <mxGeometry relative="1" as="geometry">
            <mxPoint x="535" y="270" as="sourcePoint" />
          </mxGeometry>
        </mxCell>
        <mxCell id="Bo3psH5uF7-XkX_DlGIA-18" value="&lt;font style=&quot;font-size: 13px&quot;&gt;نمایش نتیجه موفقیت آمیز&lt;/font&gt;" style="html=1;verticalAlign=bottom;endArrow=open;dashed=1;endSize=8;exitX=0;exitY=0.95;strokeColor=#28408E;fontFamily=B Zar;fontSize=13;" parent="1" source="Bo3psH5uF7-XkX_DlGIA-12" target="Bo3psH5uF7-XkX_DlGIA-8" edge="1">
          <mxGeometry relative="1" as="geometry">
            <mxPoint x="535" y="346" as="targetPoint" />
          </mxGeometry>
        </mxCell>
        <mxCell id="Bo3psH5uF7-XkX_DlGIA-4" value="" style="html=1;points=[];perimeter=orthogonalPerimeter;fillColor=#5EBEA0;" parent="1" vertex="1">
          <mxGeometry x="30" y="100" width="10" height="230" as="geometry" />
        </mxCell>
      </root>
    </mxGraphModel>
  </diagram>
</mxfile>
